<svg id="Object" xmlns="http://www.w3.org/2000/svg" viewBox="0 0 567.93 670.3"><defs><style>.cls-1{fill:#444456;}.cls-2{fill:#4f6d7a;}.cls-3{fill:#c77171;}</style></defs><title>dado-logo</title><path class="cls-1" d="M381.11,557.3c9.49,3.71,19.58,5.67,29.24,8.9l-.06-.34c.24-.79.49-1.57.73-2.36l3.77-1.32c-8.73-3.08-18.78-5.77-27.17-9.54C385.41,554.45,384.49,556.85,381.11,557.3Z" transform="translate(-203.53 -164.91)"/><path class="cls-1" d="M693.49,462c0-.07,0-.13,0-.22h0A.61.61,0,0,0,693.49,462Z" transform="translate(-203.53 -164.91)"/><path class="cls-1" d="M576,165h0C576.12,164.89,576.13,164.87,576,165Z" transform="translate(-203.53 -164.91)"/><path class="cls-1" d="M694.08,461.57v0S694.06,461.58,694.08,461.57Z" transform="translate(-203.53 -164.91)"/><path class="cls-1" d="M701.55,445.16a.53.53,0,0,1,0,.12S701.59,445.21,701.55,445.16Z" transform="translate(-203.53 -164.91)"/><path class="cls-1" d="M420.68,547.13l.53.57a7.77,7.77,0,0,0-.35-.71Z" transform="translate(-203.53 -164.91)"/><path class="cls-2" d="M703.32,350.86c-13.73-18.35-41.05-26-61.44-33.44-23.82-8.66-45.33-20.53-69.65-28.36,1.25,2.18-1.47,4.87-3.16,5.73,23.17,9.22,46.39,17.92,69.74,26.57,11.23,4.15,22.43,7.5,32.87,13.52,1.45.84,29.56,25.84,21,26.3,1-.05-18.84-19.31-19.85-20-1.52,2.28-2.81,4.77-5.35,6.76-.13-5.08.12-6.57,2.44-8.68-17.33-11.25-39.52-18-59-24.32-.62.46-3,.94-1.6-.54C584.65,305.6,560.21,294,535,287c-3.26,2.9-6.78,2.71-6.09-1.66-9.43-2.73-18.54-6.37-27.66-10,1.56,2.33,1.22,5.44-1.72,9.66-4.67-3.26-4.77-3.36.57-10.1-8.14-3.05-16.68-4-24.78-7.39-.7,1-5.85,7.65-6.71,4.81a10.86,10.86,0,0,1,1.91-6.68c-2.93-1-28.39-8.47-27.67-11.16a12,12,0,0,1,7.58.07c.53-4.81,7.81-2.94,4.71.78,37.35,6.66,75.73,23.29,110.5,38.06-.16-2.26,2.59-4.68,4.43-5-40.55-13.62-78.18-39.32-120.82-46.53-31.44,9.55-61.93,39.13-86,60.38-16.95,14.95-35.28,25.07-53.43,38-16.82,12-25.52,24.9-33.32,43.51-15.57,37.19-18.73,77.9-28.68,116.88-5.23,20.48-6,42.29-9.28,63.2-2.87,18.53-15.08,49.29-7.88,67.48.33-.25.66-.5,1-.72l-1,.79c5.3,13.23,34.36,21.62,47,27.26-.59-2,5.17-3,5-2.88l-.6-2.23-.42-1c-3.44-1.74-26.86-10.46-25.75-13.45,1.71-4.6,32,9.68,35.94,11.16.43-.16.87-.31,1.31-.45a3.24,3.24,0,0,0,.37.46,2.36,2.36,0,0,1-.33.45c34.4,10.63,67.27,26.53,101.89,36.93,9.1,2.73,86.86,24,85.56,27.69-1.88,5.36-158.69-47.88-166.22-50.53,0,2.55-.22,3.3-2.62,4.6C360.5,686.15,409,703.07,457.89,719a1.53,1.53,0,0,1,2.29-1l.75.35-1.17,1.23c6.23,2,13.58,5.31,20.17,3.66a44.13,44.13,0,0,1,17.84-8.55,15.18,15.18,0,0,0,.47-2c1.26-1.67,12.7-11.17,14.22-8.68a6,6,0,0,0-3.42,3.28,2.34,2.34,0,0,0,2.15.51c1.17,2.77-9.69,2.6-10.24,6.21,19.12-4,39.68-15.76,56.13-25.83a1.84,1.84,0,0,1-.88-.72,1.77,1.77,0,0,0-.18-.82,4.1,4.1,0,0,1,.46-.91c-3.81-1.32,1.32-4.9,1-1.32a2.57,2.57,0,0,1,1.27,2.73c12.32-7.56,24.5-15.16,37.38-21.77a7.43,7.43,0,0,1,1.87-4.53l.45.26,2.09-2.58-2.09,2.59a3.46,3.46,0,0,1,.16,3c35.64-18.23,58.84-37.25,69.23-76.49C675.18,560,682,532,687.32,503.86c4.46-23.52,8.24-47.2,12.18-70.81,3.87-23.19,14.84-54.51,6.48-77.37C699.3,360.49,693,354.54,703.32,350.86Zm-42.65-24.59c-.16.32-2.9,2.57-2.14,1C658.84,326.66,662.47,322.61,660.67,326.27Zm24.73,45.35c.71-.31,1.64-1,2.11-.86,2.47.53-.63,6.42-2.65,4.8C683.43,374.42,685.46,373,685.4,371.62ZM676.77,365c6.64-2.46.6,6.61-.67,4.87A5.66,5.66,0,0,1,676.77,365Zm1.11,26.14-.89.11.79-.88ZM673,460.36a13.73,13.73,0,0,0-2.76,4.54,12.67,12.67,0,0,1,.53-1.25A12.81,12.81,0,0,1,673,460.36Zm-8.17,43.95a9.69,9.69,0,0,1,1.84-.26c-.61,0,.78,3.23-1.87,2.05Zm-.25-34.43c-.79,1.68-1.72,5.53-3.77,3.3a1.61,1.61,0,0,1-.18-.42C661.72,471,662.94,469.79,664.62,469.88Zm-3,65.09-2.7,2.15A16.13,16.13,0,0,1,661.59,535ZM646.13,339.58a5.23,5.23,0,0,1-3.17,2.95l-.3-2.21A3,3,0,0,1,646.13,339.58Zm-9.84,52.92.56.42-.92.54Zm-3.93-62.32c0-.15.29-.32.45-.49C633.83,330.12,632.25,330.47,632.36,330.18Zm-1.3,27c1.42-.06.6.51-.18.88Zm-12.55-35.32a4.73,4.73,0,0,1-1.41,3.49l-2.3-2.25A3.94,3.94,0,0,1,618.51,321.82ZM615.7,360c3.94-2.07,23.62,1.09,18.84,5.85-5.64,5.31-20-7.38-21.77,9.2,1.3-.37.25,2-.14,2.4.08,14.85,21.62,38.67,35.69,24.54,8.47-8.51,5.19-22.78-1.81-30.94q-4.49.18-3.88-4.73c-.32-.87-.06-1.4.79-1.6,4.59-6.71,10-4.4,6.36,3.27,23.87,22.07-9.81,61-34.36,28.58C608,387,600.77,367.87,615.7,360Zm3,8.41c0,.14-.29.31-.44.47C617.21,368.7,619,367.73,618.74,368.44Zm29.83,107.19v.09l-.11,0,.11-.12c0-1,2.39-11,4.87-7.47C654.27,469.34,649.06,475.14,648.57,475.63Zm2.48,43a2.55,2.55,0,0,1-2.34-.38C650.93,516.78,651,516.79,651.05,518.67Zm-4.12-65.8c-.06-.18.33-.69.51-1C650.29,449.66,647.6,454.77,646.93,452.87Zm8.44,68.39c.09,0-2.34,5.13-3.93,3.91S654.72,521.14,655.37,521.26Zm.28,9.09c-.68.74-1.42,1.14-2.08.93C652,529.73,658.15,527.64,655.65,530.35Zm-11.58,44.1,0,0c.51,1.32-.06,2.8-1.62,4.42h0c-.2.58-.41,1.16-.61,1.73l-.64-.61c.31-.33.61-.68.89-1-.84-1.53,1.1-3.49,2-4.5,0,0,0,0,0,0l0,0c-.45-1-1.52-4.9,1.61-3.73a3.57,3.57,0,0,1-1.6,3.72A.05.05,0,0,1,644.07,574.45ZM633.22,564c-3,.27-5-4.25-3.37-6.17a1.18,1.18,0,0,0,.62-.46c-.39-1.68.93-4.09,3-3.76,1.35.76,1.58,1.88.68,3.34a18.72,18.72,0,0,1,3,1.83C639,560.47,635,564.85,633.22,564Zm-.29,8.15-2.54-2.43C633.79,568.45,634.07,568.71,632.93,572.13Zm3.21-121.25q.87,2.85-2.06,4.77C628.36,461.87,629.22,445,636.14,450.88Zm-2.68,28.35c-.23,1.36-.9,1.92-2,1.65C631.74,479.65,632.41,479.1,633.46,479.23Zm-2.14-40c-.71-.44-3.28-2.31-.5-2.85,1.59-.31,2.32.61,3.2,1.3ZM636,484.42l2.29-1.94C640.38,483.79,637.61,485.3,636,484.42Zm-9.37,69.75c-.17.45-.36.57-.55.33l.28-.43C626.5,554.1,626.69,554.12,626.67,554.17Zm-6.58-133c2.56-.19-2.16,4.95-3.5,3.93C614.82,423.72,620.76,421.08,620.09,421.13Zm.71,9.12c-.69.74-1.42,1.13-2.08.92C617.1,429.62,623.3,427.53,620.8,430.25Zm-4.6-11.68a2.58,2.58,0,0,1-2.34-.39C616.08,416.67,616.14,416.68,616.2,418.57Zm-11.91,42.7q5.37-.54,8.44,4.67a10.23,10.23,0,0,1,3,5.46C614.32,474,602.76,464.14,604.29,461.27Zm10.37,152.41-.08.45-.35-.08ZM610,544.56q1.5-2,3.43-.31l.08-.08.28,0-.32.11,0,0a5.72,5.72,0,0,1-1.51,1.37C611.33,546,609.55,546,610,544.56ZM607.1,542l1.67-1.67c.75-.17,1.5-.24,1.17.74A2.65,2.65,0,0,1,607.1,542Zm-1.5,41.29c.46,1-3.45,3-3.57,2.11C602.48,584.51,604.89,581.8,605.6,583.3Zm-1.29-9.43c.06-.53.39-.72,1-.57C605.22,573.83,604.9,574,604.31,573.87ZM601.41,388a3.55,3.55,0,0,1,2-.82h0c-.73,2.32-.17,1.88-2.71,2.92A5.32,5.32,0,0,1,601.41,388Zm-2.07,155.67c.39.51,5.62,5.35,5.76,5.44,1.91,1.28-5.22,3.82-5.32,2a17.64,17.64,0,0,0,1.08-3.32c-.5.42-5.55.07-5.3,0Zm-2,22.84c.21-1.17,2.41-3.75,3.74-.92C602.14,567.85,597.72,567,597.34,566.51Zm2.51,30.36c-.19.54-1.37,1.17-.57.2Zm-7-32.63h0a1.27,1.27,0,0,0,0,.22c.31,1,3.43-9.5,5.47-5.79.68,1.25-4.56,5.23-4.87,5.41-.13.31-.5,1.22-.6.38a.88.88,0,0,1,0-.22Zm-3.67-248.56-.56.87-.3-.46Zm3.54,5.67c6.88-.91-4,16.41-5.34,12.73C586.23,331,588.41,321.92,592.68,321.35ZM591,382.26q0,4.17-3.39,2.49C587.55,382.56,588.67,381.73,591,382.26ZM576.9,313.53l2.93-1C582.17,314.89,573.06,318.26,576.9,313.53Zm3.34,99.28a1.31,1.31,0,0,1-.4.92c-1,.09-.82-.17-.4-1.08C579.72,412.69,580.12,412.63,580.24,412.81Zm-4.39,11.84-5.32-2.94c-.3-1.28-.6-2.55-.89-3.82a9.27,9.27,0,0,1,4.29,2.92C573.5,420.3,576.4,424.89,575.85,424.65Zm2,26.57c-1.3,2.62-11.47-8.06-11.48-11.08C568.87,441.12,580.31,446.33,577.89,451.22Zm-2.11-50.13,2.36,2.78-2.69-1.51ZM554,296.83l.37.63-1,.33Zm.8,66.73c1.25,1.74.42,8.05-3.4,6.73C549.24,368.18,554,362.42,554.79,363.56Zm-7.3-26.41-.64,1-.32-.54Zm.62,69.28c-3.39-3.34,5.39-8.67,6.76-2.56,3.65-1.3,27.31,6.11,21.41,11.52-1.69,1.58-10-3.65-12.59-4.46-22.51-7.61-30.23,22.54-15.26,35.84,7.68,6.82,19.12,9.89,28.78,5.37,5.54-2.6,9.85-7.56,10.74-13.59.23-1.54-2.39-12.63-1.9-13.09,2.84-2.53,6.08,7.43,6.42,9.23,1.13,6-1.28,11.1-5.27,15.45-8.31,9-22.6,9.19-33.27,4.68C535.8,447.14,524.57,414.7,548.11,406.43Zm12.66,13.36c-1.39,2.81-4.8.76-4.09-1.82C558.73,415.34,562.2,416.91,560.77,419.79Zm24.85,176.33-2.66.8c-1.62-1.64,1.82-2.16,2.45-1.94,3.2-3,5.26-6.24,5.77-9.93C595.7,588.37,588.52,595.12,585.62,596.12Zm3.11,3.68,0,.33-.28-.06Zm2-60.71c-3.68,4.73-.31-.5-5.78,1.23a2.5,2.5,0,0,1-2.44-.21c-5.61,2.72-2.63-6-.16-3.2C582.9,536.65,596.68,531.49,590.77,539.09Zm1.3,11.38-.6.85.58-.85ZM588,563.75c-1.57.52-1.93,0-1.1-1.41C588.75,561,589.42,563,588,563.75Zm-9.49-51.81c-2.42,1.93-3.61,1.51-4.57.63-.31-.29-.61-.64-.91-1A5.12,5.12,0,0,1,578.5,511.94Zm-5-32.7c.5-1.83,1.62-2.54,3.36-2.11a2.46,2.46,0,0,1-.6,2.06Q574.13,481,573.47,479.24ZM570,515.71c.16-.68.31-1.36.47-2A1.71,1.71,0,0,1,570,515.71Zm-1.54-1.93-1.51.3,1-1.07Zm-7,36.47c-.76-1.69.5-3.39,2.41-5.08C564,546.86,564.18,548.55,561.5,550.25Zm-4.79,36.64c-2.41,16.9-4.87-10.25,1.12-2.1C558.27,585.39,557.4,586.21,556.71,586.89ZM549,526.53a1.92,1.92,0,0,1-2.54.53c-.11-1.43.9-2.86,2.49-1.53C550.76,524.65,549.9,527.55,549,526.53Zm.69,40.78a4.82,4.82,0,0,1-2.69,2.46,4,4,0,0,1,1.31-3.23Zm-11.77-220.5-.39,2.73a4.94,4.94,0,0,1-5,2.8C531.17,350.81,536.39,346.11,537.91,346.81Zm-9.61-1.49a1,1,0,0,1-1.24,1C526.72,345.42,527.13,345.09,528.3,345.32ZM533.51,499c3.78,2.78-5,9.78-6.72,6.21C525.48,502.52,530.86,497,533.51,499Zm-7.09,48.55c4.55-.77.58,2.06,0,1.79C526.39,548.71,526.4,548.12,526.42,547.52Zm-3.29,30.66-2.7,2.16A16.09,16.09,0,0,1,523.13,578.18ZM519.87,352.4c.06.9.11,1.79.17,2.69-1.34,1.71-2.86,2.26-4.09,1.66Q515.64,352.6,519.87,352.4Zm-2.68,221.16c-.68.75-1.42,1.14-2.07.93C513.49,572.94,519.7,570.86,517.19,573.56ZM513,568.38c-1.49-1.13,3.28-4,3.93-3.91C517,564.49,514.57,569.6,513,568.38Zm2.88-45.27c.11.52-.51,1.51-.8,2.29C501.77,540.29,513,509.44,515.86,523.11Zm-3.27,38.78a2.58,2.58,0,0,1-2.34-.39C512.47,560,512.53,560,512.59,561.89Zm1.67-216.25q-1.59,4.61-6.56,4C505.3,347.16,514,342.69,514.26,345.64Zm-3.95-44.71h0l1.93-.93C511.37,302.65,508.91,303,510.31,300.93Zm-6.46,14.2c2.26-3.7,11.64-7.44,7.1-1,.2-.28-8.87,9.38-9.85,5.07A5.07,5.07,0,0,1,503.85,315.13Zm-2.44,12.53c0-2.57,2.94-1.51,3.9-1.07C509.53,333.82,501.35,331.8,501.41,327.66Zm-.6,57.55c-.75-2.58.27-3.84,3.08-3.77Q504.56,384.64,500.81,385.21Zm2.53-30.55c.9,2.33-2.08,2.15-2.89,2.22C500.27,358,501.28,349.24,503.34,354.66Zm-.63,65.5c.94,2.42.11,4.55-2.51,6.38a4.48,4.48,0,0,1-2.1,1.24h0C497.32,426.53,500.28,419.6,502.71,420.16Zm-7,50c3.43-1.19,1.46.58-.05,1.67C495.65,471.25,495.67,470.7,495.69,470.14ZM475.86,333.35c-2.54,6-7.41-1.64-7.59-1.69S479.08,325.85,475.86,333.35Zm1.32,8.95c-.24,2.16-1.48,3.09-3.74,2.81C473.54,342.18,474.79,341.25,477.18,342.3Zm-10.07,83a1.87,1.87,0,0,1-2.33,1.36C465,425.27,465.8,424.82,467.11,425.27Zm15.55,42.91c-5.19,6.15-23.86-13.36-33.55,4-5.64,10.13-2.67,24.34,4.69,33.73l.87-.29-.49.77a26.59,26.59,0,0,0,9.23,7.44c1-.35,5-1,3.88,1.52,7.3,2.35,17.92.54,23.6-4.54q-4.92,3.26-9.47,1c1.34-4.61,10.45-10.33,15.69-8.77,2.33-4.16,2-30.37,1.33-30.21,11.64-2.35,4.33,30.7-.12,35.76-8.11,9.59-21.91,13.76-34,9.56q-3.28,4-6.94,2.57c.31-2.6-.1-2.11,2.36-4.57-15.52-8-24.51-32.54-15.1-48.31C456.38,448.29,483.7,467,482.66,468.18ZM478,475.33c0-.74-.81-5.19,2.75-2.93C483.36,474,478,475.32,478,475.33ZM462.82,487.2c-1.47-6.11,8.74-12.21,10.09-5.12C474,487.61,464.48,494,462.82,487.2Zm30,60.15c-.23,1.36-.89,1.92-2,1.65C491.07,547.77,491.74,547.22,492.78,547.35Zm-27.45,18.58-.17.91-.7-.17ZM445.41,440.58c-.87,0,5-7.47,6.56-2.29.36,1.21-5.58,9-6.23,8a5.61,5.61,0,0,1,3.43-4.85C448.32,440.49,446.87,440.55,445.41,440.58Zm14.21-5.91c-1,.79-1.28.53-.79-.78C459.85,433,460.12,433.29,459.62,434.67Zm-.51-50c2.41,6.35-17.72,16.95-21.29,18.67C433.66,405.33,457.12,379.45,459.11,384.66ZM437.7,515.81c1.42,2.44-1.37,5.07-3.55,3.62C433.11,518.55,436.71,514.1,437.7,515.81Zm-4.47-184c4.43-3.51,4.35-4.53,10.13-5.42C440.08,330.13,436.71,332.13,433.23,331.85Zm4.17,121a3.8,3.8,0,0,1,1.9-2.25c1.37-.32,1.57.05.61,1.11A4,4,0,0,1,437.4,452.84Zm9.28-68.55c.21,1.7-.11,2.31-1.84,3C445.46,386.3,446.07,385.3,446.68,384.29Zm-2.27-119.75c-.65,2.48-6.18,7.33-7.78,10.91-4.2,9.36-6.29,20.69-9,30.62,1.35,2.65.86,5.65-1.93,7.18-5.75,20.69-8.44,41.53-12.91,62.48l1-.05-1,.05c-6.75,31.63-9.67,64.09-15,96-3.31,19.95-11.79,55.38,4.7,70,17.52,15.56,46.29,22.89,67.53,31,28,10.68,57.19,19.77,85.85,28.5-.33.5,7.74-4,7-4.1q2.94,2.5-.12,6.11c3.67,1,43.36,13.63,42.42,15.09,1.59-.32,2.23,1.87,3.35,2.66,0,3.09,0,8.45-4.81,7.55-.66-3.46-3.27-7.57.73-9.92-12.89,1.4-31.34-7.44-43.75-11-3.54,2.67-4.91.33-6.9-2.05-28.25-8.82-56.92-18.45-84.51-29.22-22.94-9-53.93-16.55-72-34-11.83-11.44-8.67-35.16-7.39-50.54,2.37-28.69,8-58.12,12.08-86.62,1.82-12.44,3.66-24.82,6.18-37.14a1,1,0,0,1-.69-.08,1.47,1.47,0,0,1,1-1.62c4-19.55,6.32-38.47,11.94-57.74-1.31.42-4.4,5.11-5.68,4.36-.91-.54,6.25-9,7.15-9.39,3.28-10.88,6.56-23.79,12.5-33.59,0-.11,0-.22,0-.33l.22,0C435.93,267.65,445.17,262,444.41,264.54ZM428.93,490.46c1.78-.44,2.3.18,1.59,1.83-1.27.91-2.15.83-2.46,0C428,492,428.62,491.07,428.93,490.46Zm-1.84-51.35c-2.44-2.25,2.25-3.55,2.42-3.25C430.19,437,428.58,439.6,427.09,439.11Zm-6.38-67.94-.19.48-.27-.22Zm-7,4.59.14-.09-.06.14.18.13c-.3.27-.35.22-.18-.13Zm-6,164.53c-.73,2.32-.16,1.88-2.71,2.92.81-2.68.4-2.05,2.71-2.92h0Zm-5.76-5.48c-.62.15-1.22.23-1.83.32C401.33,533.27,402.86,534.58,401.93,534.81ZM591.65,640.58a4.25,4.25,0,0,1-.22.5,4,4,0,0,0-.13.52.93.93,0,0,1,.13-.52A4.46,4.46,0,0,1,591.65,640.58Zm-3.24,9.07c-1.93-.7-2.32-2-1.15-4a1.41,1.41,0,0,1,2.34.05C590.46,647.2,591,649.24,588.41,649.65Zm-6.33-6.82-1.91,3.86c-.11.13-.36.16-.54.23C577.18,645.24,582,641.9,582.08,642.83Zm-9-19.2c-.54-4.09-5.8-.49-2.26-6C579,619.73,572.76,621.37,573.06,623.63ZM574,652c-.37.59-.63.68-.73.27C573.47,651.74,573.71,651.65,574,652Zm-5.81,5.5q-.58,2.68-2.93,2.17C565.69,658.05,566.67,657.33,568.17,657.51ZM558.1,639.72c-.75.81-1.46,1.2-2.12.92a2.62,2.62,0,0,0-.69-.49l-.85-1.49c.21-.28,6.52-6.64,7.94-5.84C564.06,633.77,558,639.81,558.1,639.72ZM541.05,651.2l2.09-2.23,1.63-.46c1.72-1.76,3.43-3.53,5.15-5.3,0,.85-.58,2.31,1.29,1.14.92,1.31-.23,3.19-1.22,5C553,654,542.13,652,541.05,651.2Zm-18.61-7.6c-.87.65-2.61.3-2.64-.91-9.31-4.11-31-11.75-24.38-25.8,3.67-7.72,16.79-8.84,24-7-.86-1.52-.43-6.27-3.23-4.41-.46-.81-1.07-1.33-2.56,0-3.06.3-3.06.3-.84-2.91-3.88-9.94,7.5-.2,11,.35l2.65,4.56-2.66,2.82c2.59-.14,20,7.53,17,12,2.28-3.32-68.05-14.87-34.89,9.59,4.67,3.52,9.55,5,14.9,7.21,1-.65,3.42-1.19,3,.86,3.94.7,10.19,2.93,14,2.12,4.9-1.07,7.28-7.36,10.29-8.09,1.88-.48-2.21,11.81-10.16,12.77C533.21,647.35,527,644.78,522.44,643.6Zm2.84,8c-.64-.07-.59.07-.23-.69.18,0,.42,0,.51.1S525.41,651.54,525.28,651.63Zm-2.43,3.6-.05,0c.07.23,2.21,3.49.11,2.42s-2.67-4.17-.11-2.42C522.79,655.17,522.8,655.18,522.85,655.23Zm-6.07,7.29c1.19-.55,1.23-.51.74.72a4.09,4.09,0,0,0,.23.47,10.8,10.8,0,0,1-1.42,3.27c.09.59-.44,1-1,1.41a1.6,1.6,0,0,1-.59-1.59,4.12,4.12,0,0,1,.28-4.21.75.75,0,0,1-.09-.46,23.65,23.65,0,0,1-4.21,1.63l.15-.92c-.59-.53-.2-1.05.44-.49l3.16-1.9c.8-1.88,2-2.5,3.52-1.86a4.82,4.82,0,0,1-2,3.16Zm-10.7-5.37c-.28.46-.66.89-1,1.34l-.33-1.15C505,657.1,507,655.69,506.08,657.15ZM476.4,603.67c-1.56,1.12-8.54,3.18-9.95,3.09-3.67-.25-7.46,2-11,2.81-.28-.6-.84-1.07,0-2.24l-.16-.13.09.08h0c2.76-.39,6.88-4.6,8.64-5.53,2.53-1.34,6,2,9-3.81,1.13-.46,2.26-.9,3.4-1.35.26.11.54.21.82.3C474.93,599.7,474.34,600.67,476.4,603.67Zm-18.82,29.91c-5.45,4.28-2.26-5-1.81-4.05C455.85,629.7,462.47,629.73,457.58,633.58Zm-19.29-42.75-2.7,1.55c-.7-.44-3.28-2.32-.5-2.85C436.68,589.22,437.41,590.14,438.29,590.83ZM382.52,483.44c-.87,0,5.06-7.47,6.57-2.29.35,1.21-5.59,9-6.23,8a5.59,5.59,0,0,1,3.43-4.85C385.44,483.35,384,483.41,382.52,483.44Zm-52.15,72.27c-1.38,3.53-4.05,11-4.51,7.87A19.29,19.29,0,0,1,327.7,556c1.46-1.17,2.34-1.25,2.67-.3.9-2.3,1.25-2.92.09,2.17A5.12,5.12,0,0,0,330.37,555.71Zm-2.19-71.11c.56-1.27,6.34-7.81,6.68-4.85.06.48-.73,1.46-1.22,2.36A8.63,8.63,0,0,1,328.18,484.6Zm-13.53-26.21c.1-1.2,7.38-32.49,14.9-27.28,3.26,2.25-24.07,48.73.22,35.71,8.14-4.36,11.39-18.42,12.81-26.7.72-4.17,2.61-10.95.48-14.76-3.63-6.55-8.87-1.44-12.26-5.12-2.93-3.05,9.82-3.7,12.2-2.22,3.39,2.1,4.16,4.37,5.14,7.82,2.05,7.26-2.7,20-5.1,26.65C337.44,468,311.91,487.67,314.65,458.39Zm8.48,75.79c-.72,2.21-2.08,3.38-4.1,3.52C317.25,536.35,323.42,533,323.13,534.18Zm34.48-83.1c6.8,5.92-11.64,18.59-11.26,19.21-2.26-3.62,5.59-8.79,7.46-10.57-1.85-2-5-1.9-8.2-1.82C345.09,457.91,351.71,445.94,357.61,451.08Zm-6.74-89.31c.91-1.61,2.11-4.12,3.75-1.69C352.64,362.31,352.64,362.31,350.87,361.77ZM354.75,332c0-.15.09-.32.13-.48.46-.11.57.06.32.49Zm7.64,140.69c4.86,3.75-29.9,42.73-10.72,48.83,22.59,7.19,13.59-50.13,17.55-50.95,7.71-1.6,2.2,30.54,1.37,33.65-2.2,8.39-17.8,34-26.4,17C339.86,512.73,352.85,465.35,362.39,472.71Zm-.79-132.65-.85.29c.2-.87.71-1.84.85-.29Zm.86,165.9c-.68.74-1.41,1.14-2.07.92C358.77,505.34,365,503.25,362.46,506Zm-4.2-5.18c-1.49-1.13,3.27-4,3.92-3.91C362.27,496.88,359.85,502,358.26,500.78Zm3.92-81.48a19.46,19.46,0,0,1,1.84-7.57C370.64,406.25,362.64,422.47,362.18,419.3Zm-4.32,75a2.53,2.53,0,0,1-2.34-.39C357.74,492.38,357.81,492.39,357.86,494.28ZM368.22,353.8c-.14-1.64,1-1.83.06,0Zm.94-28.75c.26-2.18-.14-5.41,2.59-5.43C373.41,322.53,369.29,323.94,369.16,325.05Zm5.27,5.42.24-.1s0,0,0,0c.12-.21.23-.42.33-.62l.2-.44.1-.24c.06-.14.1-.29.15-.44l.09-.25c.06-.22.12-.45.17-.68-.05.22-.11.45-.17.68l-.09.25c0,.13-.08.27-.13.4l0,0-.1.24c-.06.14-.12.29-.2.44s-.21.42-.33.62c0,0,0,0,0,0h0l-.24.1c-1.2,1.65-2.31,1.74-3.4,1.51A4.83,4.83,0,0,1,374.43,330.47Zm-5.68,17.7c1.26-.93,1.79-.4,2.34.08C369.78,349.29,369.22,348.81,368.75,348.17Zm6.94,165.26L373,515a14.15,14.15,0,0,1-1.76-1.17C369.8,512.55,374.55,512.54,375.69,513.43Zm-.85-70.11q3.36-2.81,1.73,1.69C375,445.79,372.42,445.9,374.84,443.32Zm-1-65.07c-.73.53,8.13-7.09,8.41-2.42C380.72,379,377.37,380.31,373.82,378.25Zm1.33-3.66c.23,0,.49,0,.7-.11C375.64,374.55,375.38,374.54,375.15,374.59Zm-2.5-21.27c-.95-4.14-1.53-7.35-.69-11.61a2.51,2.51,0,0,1-2.79-.61c-.07-2.91.89-4,3.94-2.35.5-1,10.3-23.61,16.18-17.42.73.78-11.67,21-12,23.59-.62,5,2.81,26.95,10.54,21.16,0-.41,0-.82,0-1.23.24-.36.48-.71.74-1.07l1.91-.69a56.94,56.94,0,0,0,8-15.9c.83-2.58.57-22.49,1.11-22.8,5.5-3.24,5.19,15.13,5.09,15.9-.86,6.87-4.44,12-7.66,17.81C388.76,373.13,375.71,374,372.65,353.32Zm17-7.91a1.75,1.75,0,0,1-.5,1.08C385.73,348.55,388.87,342.82,389.65,345.41Zm-5.86,10.19c-.66-1,1.74-3.83,2.42-3.31S384,356,383.79,355.6Zm8.73-56.53.33-.55C393.62,298.67,393,299.15,392.52,299.07Zm1.23,21.13a2.6,2.6,0,0,1,.41-.85A6.65,6.65,0,0,0,393.75,320.2ZM396,364.25c-.79.46-.43-.14,0-.37C396,364,396,364.12,396,364.25Zm-.87,13.32c-.08.49-.33.64-.73.45l.33-.55C394.91,377.5,395.15,377.47,395.16,377.57Zm-.84-7.6c0,.59-.39.93-1.09,1,.07-.31.15-.62.22-.92A5.47,5.47,0,0,1,394.32,370Zm-6.51,57.53c-.27-1.09.49-2.15,1.66-2.95,1.32-1.39,2.45-1.39,3.41,0C393.17,426.08,389.21,429.2,387.81,427.5Zm21-130c.76-.65,1.41-.69,3.09-.78C410.19,296.81,409.54,296.85,408.78,297.5Zm5.7,20.59c3.64-5,2.17,10.57-2.62,7.39C411.13,324.18,414,318.71,414.48,318.09Zm-20.4-33.17c0,.13,0,.25,0,.38C393.33,285.76,393.69,285.15,394.08,284.92Zm-8.14,1c.23-.36.47-.72.73-1.07l3.49-1.26,2.68-3.69-2.68,3.69c-.22,2.66-1.57,4-4.24,4.3C385.93,287.21,385.93,286.56,385.94,285.9Zm-2.76,3.48h0l-2.62-.07Zm-9.94,6.26.31,0a2.26,2.26,0,0,0,.39-.07,2.26,2.26,0,0,1-.39.07l-.31,0Zm3.35.4c1.88-1,3.61-1.23,3.74.83-1.52,3.14-4.88,4.48-8.41,2.43A43,43,0,0,1,376.59,296Zm-37.92,34.89c3.56-4.23,17.13-16.49,21.94-16.76,10.7-5.57,21-15.09,30.73-22.25l.21-.81c.61-.36.9-.35.86,0,5.57-4.12,46.47-38.5,48.52-32.21.47,1.44-47.69,36.74-52.33,40.37s-47.86,42-52.6,36.62A6.08,6.08,0,0,1,338.67,330.93Zm-3.49,27.94a17.16,17.16,0,0,0,3.89-3.95,11.43,11.43,0,0,0,6.19,2.57c2.46-.52,2.46-.52,2.68,1.66l-2.4,1.81a3.55,3.55,0,0,1-2.52,2.13,7.54,7.54,0,0,1-5.81,3c-2.73,1.1-2.91,1-2-1.07a6.34,6.34,0,0,0,1.52-4Zm-1.25.28.29-.32c-.11.12-.21.25-.31.38a14.88,14.88,0,0,1-2.45,4.17,13.19,13.19,0,0,1,2.45-4.17S333.92,359.17,333.93,359.15Zm-1.47,53.62,3,.56-3-.56-4.62,3.06ZM311,368.22c.22-.21,5.9-3.15,3.57.06a13.73,13.73,0,0,1,7.61,3.6,4.33,4.33,0,0,1-.33-.65c1.06-1.72,2.27-3,3.95-2.87-.29.61-.61,1.23-.86,1.84-.62,1.45-1.52,2.61-2.32,2.13,10.7,11.63-4.1,42.91-16.05,47.36-31.18,11.61-7.24-35.28-1.51-31.53,3.09,2-10.08,20.89-8.38,24.45,5.29,11.05,19.64-7.06,22.28-12.12l-.69.43c.12-.57.23-1.14.34-1.7a3,3,0,0,1,1.16-.35c3.65-8,4.28-27.2-9.1-25.91a8.28,8.28,0,0,1-.92,1.15v.09l-.11,0,.11-.12c0-.35,0-.69,0-1-1.63.23-5.37,2.53-6.62,1.71C299.19,372.25,309.78,368.35,311,368.22Zm2.84,124.38-.88.56C312.81,492.49,313.58,491.45,313.84,492.6Zm-9.52-41.12c-.78.82.3-8.47,3.8-4.14C311.19,451.11,304.59,451.19,304.32,451.48ZM308,531.09c0,1.2-.71,1.76-2.19,1.7C305.78,531.56,306.51,531,308,531.09Zm-41.23,32.63a9.25,9.25,0,0,1-5.53,1.46,9,9,0,0,0,3.45-3.8c-7.79-11.47,11.48-50.93,21.26-49.74-.47-.66,1.41-3.32,2-1.39a1.72,1.72,0,0,1-.5,1.08,3.35,3.35,0,0,1-.95.42,3.7,3.7,0,0,1,1.52.9c2.87,2.73-30.79,33.5-18.89,47.35a7.77,7.77,0,0,0,2.25-.24c-.39.44-.79.86-1.18,1.25,3.62,2.73,8.82,1.43,12.09-1.14,0-.44,0-.88,0-1.32.23-.36.47-.72.73-1.07l1.78-.65c1.41-2.69,13.85-38.09,11.94-37.34,2.37-.93,3.7,5.43,3.82,6.5C301.62,537.93,284.5,578.66,266.78,563.72Zm28.88,13.7q-3.69,3.75-7,1.53a8,8,0,0,1,3.24-5.2Zm-31.28,12.23c-.44.59-4.79,2.12-5.08.86s3.94-6.12,5.42-5.56A6.29,6.29,0,0,1,264.38,589.65Zm8.34-130.51a1.5,1.5,0,0,1,1.54-.23C275.43,459.92,271,462,272.72,459.14Zm-.06-20.33c0-.15.09-.32.14-.48.45-.11.56.06.32.49Zm2.75,69.57c-.15.09-.34.25-.42.24s0-.22-.06-.34C275.28,507.91,275.44,508,275.41,508.38Zm-.3-62.3.18-1,.73.18Zm4.31-9.94.47-.91c-.13.3-.27.6-.4.89.16.56-1.32,4.76-2.94,3.2C275.56,438.37,279.42,436.14,279.42,436.14Zm-.26-14.88c.68.9-.78,1.93-1.51,1.56C276.78,421.75,278.57,420.47,279.16,421.26Zm5.3,21.7c1.54-.71,3.05-1.48,4.52-2.33a7,7,0,0,1-4.51,2.33h0c-1,.46-2,.9-3,1.31a16.9,16.9,0,0,1-1.33-2.16c-1.3-3,2.88-2.36,3.75-1.76A2.34,2.34,0,0,0,284.46,443Zm1-9.29a6.75,6.75,0,0,1,2.47-3.89A42.56,42.56,0,0,1,285.46,433.67Zm1.78,32.93c0-.59,0-1.19,0-1.78C291.84,464.05,287.86,466.88,287.24,466.6Zm3.12,60.76,2.68-3.69-2.67,3.69c-.23,2.66-1.57,4-4.25,4.3,0-.65,0-1.31,0-2,.24-.36.48-.71.74-1.07h0ZM284,495.47l-2.71,2.16A16.68,16.68,0,0,1,284,495.47Zm13.22-112.58,2.29-1.93C301.56,382.27,298.79,383.78,297.22,382.89Zm-55.6,178.44c-.14,0-.41,0-.42-.1C241.14,560.71,242.8,560.08,241.62,561.33Zm-2.05,64.36-2.23-3c-7.47-17.4,3.46-52.1,7.13-69.51,5.78-27.47,10.88-55,17-82.4,4.64-20.82,8.28-41.8,13.19-62.53,2.86-12.09,15.78-59.18,33.48-56.82-.26-.32-.1-.69.47-1.08,1.69-1.29,1.26,1,.13,1.31-2.64-2.41-26.2,43.05-27.58,47.37-6.4,19.93-9.36,40.81-13.56,61.26,1.47-.28.66,1.24.18,1.79l-.46-.37c-6,30.37-10.7,60.95-16.71,91.27C249.43,559,242.11,624.81,239.57,625.69Zm14.63-75.26h0l.18-.87C255.8,549.5,255,550.07,254.2,550.43Zm.87,62.52c-.9.86-1.3.65-1.2-.64C254.79,611.42,255.19,611.63,255.07,613ZM248,609.62c-.31-1.5.27-2.31,1.74-2.42C250.29,608.91,249.7,609.72,248,609.62Zm22.71,17q2.63-2.45,2.56.38Q271.27,628.71,270.71,626.65Zm9-14.86h0L278,616c-1.69,1.25-4.59-5.37,1.71-4.16h0Zm7.17,25.5c-.69.73-1.37,1.46-2.06,2.18h0l-2.1,2.17C281.89,638.24,283.29,633.66,286.92,637.29Zm-1.44,5.9c-3.58-.07,3-6.21,2.08-5.27a22.28,22.28,0,0,1,.51,2.38C288,642.1,287.15,643.06,285.48,643.19ZM282.81,621a4.41,4.41,0,0,1,3.85-3.18C291.69,617.25,283.64,624.55,282.81,621Zm6.61,25.11a1.7,1.7,0,0,1,2.26.15A1.9,1.9,0,0,1,289.42,646.06ZM293.31,591c-8.19,5.79-16.35,11.8-24.4,17.83-1.57,1.19-24.15,23.83-23.7,24q-1.85-3.48.71-7.08c5.23-12.9,21.74-22.42,33.48-28.94-1.72-1.42.94-3.36,2.45-1.37,5.6-3.2,97.24-70.15,102.47-61.95,2.05,3.2-15.52,12.76-18.86,14.18-.25,3.54-1.51,4.46-4.35,4.4a4,4,0,0,1-.13-2C339.87,565.48,314.83,575.78,293.31,591Zm70.07-8.64,0,0h0l0,0c-7-10.4,11.58-17.77,5.18-6.85a72.51,72.51,0,0,1-5.18,6.85Zm-39.84,21.84c-1.3,1.07-2.67,2.29-3.76,1.59C318.34,604.85,321.34,602.58,323.54,604.18Zm-6.58,8-.57-.5C317.34,611.07,317.62,611.15,317,612.22Zm-18.35,26.83c1.17-2.74,1.17-2.74,3-1.88C300.66,638.18,299.73,639.12,298.61,639.05Zm2.06-17.47a8.28,8.28,0,0,1,3.28-2.05C304.32,621.78,302.42,623.34,300.67,621.58Zm66.72,35.34c-8.53,12-35.48,5.24-46.84-6.72a7.89,7.89,0,0,1,.57,4.67c-.93-1.17-3-1-3.58-2.6a9.78,9.78,0,0,1,2.49-2.64c-3.58-4-5.41-8.52-4.27-13.11,6.26-25.27,41.79-.27,38.5,3,1.08-1-49.16-17.19-32.47,5.33.29-1,.84-2.25,1.83-4.58,1.95-1.09,2.55.14,3.59.61L323,646.29c5.87,6.19,15.19,11.35,23.56,12.6,4.43.65,20.74-7.45,21.78-6.9Q369.91,654.57,367.39,656.92Zm-11.31-6.35c.88,1.75-2.21,4-3.55,4C350.75,654.75,355.26,648.93,356.08,650.57Zm.79-7c.16.12,0,.65-.07,1C354.25,647.54,355.21,642.41,356.87,643.56Zm-7.26,3.07c-2,1.62-5.14,5.61-7,2.45-1.44-.26-3,.57-4.51,2L335,648.15l-.1,0,.1,0a19.54,19.54,0,0,1,13-5.83l1.5,1A2.22,2.22,0,0,1,349.61,646.63Zm-15.69,2.54c0,2-.23,2.23-2.22,2.18Zm55.21,24.67a11.19,11.19,0,0,1,.86-3.14c.76-1,7.63-6.71,8.54-5.21C395.5,667.57,393.55,670.83,389.13,673.84Zm2.2-35.75c2.21-1.51,2.28-1.5,2.33.39A2.51,2.51,0,0,1,391.33,638.09Zm6.65,3c.1,0-2.33,5.12-3.92,3.91S397.33,641,398,641.07Zm.29,9.09c-.69.74-1.42,1.14-2.08.92C394.57,649.54,400.77,647.45,398.27,650.16Zm3.73-1.55q.44-1.85,2-1.65C403.77,648.33,403.11,648.88,402,648.61Zm-10.85-15c-6.39,1.26-15-.67-20.33-4.08-8.28-5.2-25.75-12.54-17.27-25,4.35-6.41,16.5-7.64,23.37-5.37a8.57,8.57,0,0,1-.94-4.75,8.57,8.57,0,0,0,.94,4.75l.15,0a16.08,16.08,0,0,1,6.53-4.72l-6.51,4.73c7.57,2.48,13.9,2.34,20,8.69a.43.43,0,0,0,0-.07.43.43,0,0,1,0,.07q3.88,4.18-1,3.65c.12.12.24.23.35.36.95-.89-5.48,6-6.42,4.07s3.26-4.19,4.42-4.83c-6.9-2-12.48-5.66-19.66-6.6-12.95-1.7-25.55,4.35-11.72,16.45a37.17,37.17,0,0,0,18.07,8.21c2.87.43,22.46-5.94,22.51-5.91C408.25,626.55,392.86,633.24,391.15,633.58Zm18.18-8.78a1.62,1.62,0,0,1-1.88,1.1c0-.59,0-1.19,0-1.78C409,623.28,409.64,623.51,409.33,624.8Zm8.54,19c.09-.44.33-.57.69-.41C418.47,643.8,418.24,643.93,417.87,643.77Zm-1.33-37.37c-6.84-1.73-15.21-5.71-20.59-10.45-9.89-8.75-11.95-20.41,2.05-25.69,7.92-3,13.59.15,21.28.28.69-.42,1-.43,1.09,0a14.49,14.49,0,0,1,2.91.16c2.73.5,16.54,12.2,10.94,14.58-2.14.92-8.91-6.58-11.21-7.93-1.1.88-3.13,1.25-2-.58-12.7-.91-45-1.37-21.15,17.86,4.45,3.59,11,6.11,16.49,7.4,2.87.68,22.4-2.39,22.81-1.85C444.17,606.62,418.32,606.86,416.54,606.4Zm8.53-23c-.68.74-1.42,1.14-2.08.92C421.37,582.74,427.57,580.65,425.07,583.36Zm14,65.12a1.17,1.17,0,0,1-1.48.44l0-1.79C439.1,646.88,440.33,646.9,439.08,648.48Zm-13.53-8.43c-.26.07-1.52,0-.76-.63Zm-4.08,21.06c2.22-1.51,2.28-1.5,2.34.38A2.55,2.55,0,0,1,421.47,661.11ZM424.2,668c-1.48-1.14,3.27-4,3.93-3.92C428.22,664.1,425.8,669.21,424.2,668Zm2.13,6.1c-.36-.35-.18-.9.32-1.47C429.68,669.21,429,675,426.33,674.1Zm3.3,7c-2.58-12,9.87-16.23,19.16-15.31,2.09.2,23.31,7.74,19.48,13.58-1,1.5-16.18-5.42-17.49-6.18-5-2.89-17.17-3.58-17.21,5.18.26-.19.51-.39.78-.56l-.78.62c.07,17.2,38,15.7,38.19,21.42C472,707.08,432,692,429.63,681.08Zm46.42,8.78a3.28,3.28,0,0,1,1-2.38C477.74,688.51,477.4,689.31,476.05,689.86Zm.47-3.18q-1-2.46,1.39-4.28c1-.62,1.8-.34,2.5.83C479.8,685.45,478.1,686,476.52,686.68Zm-10-32.89c-.54-5.13.3-8.56,2-10.71a2.4,2.4,0,0,1-.32.17q-2.56-1.72.4-2.37c.55.55.75,1,.63,1.45,9.08-8.49,36.23,9.42,34.16,12.55-1,1.57-18.74-6.53-20.06-7.21-14.94-8.61-14.17,10.81-5.48,18.44,6.73,5.91,32.19.87,33.1,2.1,4.45,5.95-18.3,7.56-21.07,6.94C479.89,672.9,467.69,665.16,466.49,653.79Zm27.08,3.87c-.09,2.35-1.2,3.54-3.34,3.6C486.49,656.94,493.34,655.29,493.57,657.66Zm-1.56,26c-.45,1.37-1.06,1.57-1.81.57-1.28-2.22-.83-4,2.32-4.48.55,1.26.14,2.4-1.21,3.43C491.72,683.09,492.19,683,492,683.61Zm-1.94,2.95-.82,1.58C488.47,687.45,488.26,686.13,490.07,686.56Zm-7.19-8.19c.2-.36.41-.72.62-1.08A1.16,1.16,0,0,1,482.88,678.37Zm103.91-15.85c-.61,1.9-1.24,2-2.39,2.15C584.34,663.25,587.22,661.19,586.79,662.52Zm36-18.54c.37.06.54.35.58.78l0,.15A1.63,1.63,0,0,0,622.8,644Zm-7.32,2.18c.29.89.57,1.78.85,2.67a10.31,10.31,0,0,1-6.52,4.06,4.06,4.06,0,0,1,.88-4.47c-10.12,4.38-120.08,67.89-122.31,59.1-.5-2,36.84-20.59,66.2-34.88h-.06c-1.59-3.82,3.69-9.36,4.72-6.14.42,1.32-.58,3.43-1.91,4.81,15.48-7.52,28.24-13.61,31.17-15-.89-1.54,1.73-1.32,2.15-1.1l.21-.11c.67-.8,1.39-1.59,2.06-2.38-.67.79-1.39,1.58-2.06,2.38,6.26-3.57,12.45-7.51,18.64-11.19,3.43-2,13.81-13.58,15.78-14.16a2.09,2.09,0,0,1,1.69,2.21C628.07,638.36,620.2,643.51,615.48,646.16Zm15.85-16.86c-.67-.07-.44-.53.09-1.12Zm7,6.59c-.75,1-1.65,1.82-2.48,2.73.15-1.86.3-3.73.43-5.59q-2.49.86-3.76-1.06c1.82-2,2.18-5,4.54-6.25C644.3,621.87,639.77,634,638.31,635.89Zm20.6-38.83-2.54-2.43C659.78,593.35,660,593.6,658.91,597.06Zm.35-6.75q-.3-2.88,2.39-2.13C661.77,589.8,661,590.51,659.26,590.31Zm28.19-107a1.92,1.92,0,0,1-2.54.53c-.12-1.44.9-2.86,2.49-1.53.68-.33,1-.19,1.08.38S687.83,483.74,687.45,483.32ZM694,433.55h-.45c0-.15.09-.31.13-.47C694.16,433,694.26,433.12,694,433.55Zm-12.11,24.9,2.17.56c2.46-.52,2.46-.52,2.68,1.67l-2.4,1.81a3.51,3.51,0,0,1-2.52,2.12l-.8.65c-3.16,18-17,177.25-59.57,155.94-2,1.2,1.85-7.88,4.84-6.49,1.25.59-2.15,3.78-2.49,4.11,15.93-4.85,26-19.63,31.67-34.6q-3.24.22-3.87-4.85c-2.77-.68,2.14-11.16,7.23-7,8-34.24,10.92-69.73,16.51-104.5-3.68,1.41-.11-3.59.17-5.32L674,460.39a14.16,14.16,0,0,0,2.56-2.33c.44-5.82,13.37-97.31,19.2-96.25C700.92,362.74,682.39,453.56,681.91,458.45ZM700.07,417a1.26,1.26,0,0,1-1.51.58C697.08,415.75,701.2,415.31,700.07,417Z" transform="translate(-203.53 -164.91)"/><path class="cls-1" d="M771.46,361.14c-.19.41-.36.83-.52,1.26C771.1,362,771.27,361.55,771.46,361.14Z" transform="translate(-203.53 -164.91)"/><path class="cls-1" d="M431,453.2a5.2,5.2,0,0,1,.08,2.18C432.28,450.29,431.93,450.91,431,453.2Z" transform="translate(-203.53 -164.91)"/><path class="cls-1" d="M474.21,193.1a2.45,2.45,0,0,0,.39-.08A2.45,2.45,0,0,1,474.21,193.1Z" transform="translate(-203.53 -164.91)"/><path class="cls-1" d="M389.64,338.13c-1.47.84-3,1.61-4.52,2.32h0A7,7,0,0,0,389.64,338.13Z" transform="translate(-203.53 -164.91)"/><path class="cls-1" d="M569.9,539.83a7.22,7.22,0,0,0-.71.75A1.4,1.4,0,0,0,569.9,539.83Z" transform="translate(-203.53 -164.91)"/><path class="cls-1" d="M475.34,227.83s0,0,0,0h0S475.34,227.84,475.34,227.83Z" transform="translate(-203.53 -164.91)"/><path class="cls-1" d="M476.13,226.08l-.15.45,0,0C476.05,226.36,476.09,226.22,476.13,226.08Z" transform="translate(-203.53 -164.91)"/><path class="cls-1" d="M423.28,269.82l-.44-.45A1.45,1.45,0,0,0,423.28,269.82Z" transform="translate(-203.53 -164.91)"/><path class="cls-1" d="M434.56,256.7a13.32,13.32,0,0,0-2.44,4.18A15.43,15.43,0,0,0,434.56,256.7Z" transform="translate(-203.53 -164.91)"/><path class="cls-1" d="M692.09,538.57c-.1.22-.18.42-.13.53A3.16,3.16,0,0,1,692.09,538.57Z" transform="translate(-203.53 -164.91)"/><path class="cls-1" d="M476.21,225.84c.07-.23.13-.46.18-.68C476.34,225.39,476.28,225.61,476.21,225.84Z" transform="translate(-203.53 -164.91)"/><path class="cls-1" d="M554.75,404.05l.09-.13-.39-.49-.05,0Z" transform="translate(-203.53 -164.91)"/><path class="cls-1" d="M658,568.8l-2.75,1.34A3.36,3.36,0,0,0,658,568.8Z" transform="translate(-203.53 -164.91)"/><path class="cls-1" d="M623.46,552.7l0,0C623.46,552.67,623.45,552.67,623.46,552.7Z" transform="translate(-203.53 -164.91)"/><path class="cls-1" d="M475.68,227.2c.07-.14.13-.29.2-.43C475.81,226.91,475.75,227.06,475.68,227.2Z" transform="translate(-203.53 -164.91)"/><path class="cls-1" d="M387.16,409.25a3.45,3.45,0,0,0-.54-.11C386.71,409.26,386.88,409.31,387.16,409.25Z" transform="translate(-203.53 -164.91)"/><path class="cls-1" d="M494.81,216.85a2.47,2.47,0,0,0-.4.85A6.59,6.59,0,0,1,494.81,216.85Z" transform="translate(-203.53 -164.91)"/><path class="cls-3" d="M455.65,821.61c.69-1.21,1.47-2.38,2.28-3.54-1.59,1.45-2.76,3.24-4.2,4.81A15.18,15.18,0,0,1,455.65,821.61Z" transform="translate(-203.53 -164.91)"/><path class="cls-3" d="M386.77,821.59a.91.91,0,0,0,.25.18l-.06-.42A.81.81,0,0,0,386.77,821.59Z" transform="translate(-203.53 -164.91)"/><path class="cls-3" d="M233.63,768.41a3.91,3.91,0,0,0,.88.22A3.91,3.91,0,0,1,233.63,768.41Z" transform="translate(-203.53 -164.91)"/><path class="cls-3" d="M452.5,644.52c0,.06,0,.08.05.08S452.52,644.56,452.5,644.52Z" transform="translate(-203.53 -164.91)"/><path class="cls-3" d="M231.16,766.69h0a8.1,8.1,0,0,0,2.23,1.63A8.1,8.1,0,0,1,231.16,766.69Z" transform="translate(-203.53 -164.91)"/><path class="cls-3" d="M462.84,810.09l.15-.37-.24.16a1,1,0,0,1-.07.15Z" transform="translate(-203.53 -164.91)"/><path class="cls-3" d="M301.84,738.72a2,2,0,0,1,.14-.55A2,2,0,0,0,301.84,738.72Z" transform="translate(-203.53 -164.91)"/><path class="cls-3" d="M463.21,640.94l-.1-.05c-.57.75-1.23,1.45-2,2.25Z" transform="translate(-203.53 -164.91)"/><path class="cls-3" d="M325.76,689.6c-.7.51-1.4,1-2.09,1.54C324.36,690.61,325.06,690.11,325.76,689.6Z" transform="translate(-203.53 -164.91)"/><polygon class="cls-3" points="116.89 543.82 116.89 543.82 116.89 543.82 116.89 543.82"/><path class="cls-3" d="M452.72,672.26l2.88-3A20.09,20.09,0,0,0,452.72,672.26Z" transform="translate(-203.53 -164.91)"/><polygon class="cls-3" points="0.01 513.72 0 513.73 0.01 513.72 0.01 513.72"/><path class="cls-3" d="M399.69,656.19a2.32,2.32,0,0,1-.14-.23C399.32,656.48,399.42,656.47,399.69,656.19Z" transform="translate(-203.53 -164.91)"/><path class="cls-3" d="M426.09,835.21l1.12-.31h0Z" transform="translate(-203.53 -164.91)"/><path class="cls-3" d="M393.79,802.67l0,0C393.76,802.64,393.73,802.64,393.79,802.67Z" transform="translate(-203.53 -164.91)"/><path class="cls-3" d="M434.2,801.64a4.27,4.27,0,0,0-.34.32A3.4,3.4,0,0,0,434.2,801.64Z" transform="translate(-203.53 -164.91)"/><path class="cls-3" d="M443.79,676l-1.12-.11Z" transform="translate(-203.53 -164.91)"/><path class="cls-3" d="M267,663h0C267,663,267,663,267,663Z" transform="translate(-203.53 -164.91)"/><path class="cls-3" d="M446.72,677h0a2.2,2.2,0,0,0-.4-.3A2.2,2.2,0,0,1,446.72,677Z" transform="translate(-203.53 -164.91)"/></svg>